<svg width="67.000000" height="67.000000" viewBox="0 0 67 67" fill="none" xmlns="http://www.w3.org/2000/svg" xmlns:xlink="http://www.w3.org/1999/xlink">
	<desc>
			Created with Pixso.
	</desc>
	<defs>
		<clipPath id="clip140_156">
			<rect id="exercise 1" width="67.000000" height="67.000000" fill="white" fill-opacity="0"/>
		</clipPath>
	</defs>
	<rect id="exercise 1" width="67.000000" height="67.000000" fill="#FFFFFF" fill-opacity="0"/>
	<g clip-path="url(#clip140_156)">
		<path id="Vector" d="M10.46 2.09L6.28 2.09C6 2.09 5.73 2.2 5.54 2.4C5.34 2.59 5.23 2.86 5.23 3.14L5.23 10.46C5.23 10.74 5.34 11.01 5.54 11.2C5.73 11.4 6 11.51 6.28 11.51L10.46 11.51C10.74 11.51 11.01 11.4 11.2 11.2C11.4 11.01 11.51 10.74 11.51 10.46L11.51 9.42L12.56 9.42C12.56 9.55 12.58 9.68 12.63 9.81L16.31 19C16.72 20.04 17.45 20.91 18.4 21.5L25.12 25.7L25.12 31.32L21.02 57.98L16.21 60.86C16.05 60.96 15.92 61.09 15.83 61.24C15.75 61.4 15.7 61.58 15.7 61.76L15.7 63.85C15.7 64.13 15.81 64.4 16 64.59C16.2 64.79 16.47 64.9 16.75 64.9L26.17 64.9C26.44 64.9 26.71 64.79 26.91 64.59C27.1 64.4 27.21 64.13 27.21 63.85L27.21 61.92L33.5 42.18L39.78 61.92L39.78 63.85C39.78 64.13 39.89 64.4 40.08 64.59C40.28 64.79 40.55 64.9 40.82 64.9L50.25 64.9C50.52 64.9 50.79 64.79 50.99 64.59C51.18 64.4 51.29 64.13 51.29 63.85L51.29 61.76C51.29 61.58 51.25 61.4 51.16 61.24C51.07 61.09 50.94 60.96 50.78 60.86L45.97 57.98L41.87 31.32L41.87 25.7L48.59 21.5C49.54 20.91 50.27 20.04 50.68 19L54.36 9.81C54.41 9.68 54.43 9.55 54.43 9.42L55.48 9.42L55.48 10.46C55.48 10.74 55.59 11.01 55.79 11.2C55.98 11.4 56.25 11.51 56.53 11.51L60.71 11.51C60.99 11.51 61.26 11.4 61.45 11.2C61.65 11.01 61.76 10.74 61.76 10.46L61.76 3.14C61.76 2.86 61.65 2.59 61.45 2.4C61.26 2.2 60.99 2.09 60.71 2.09L56.53 2.09C56.25 2.09 55.98 2.2 55.79 2.4C55.59 2.59 55.48 2.86 55.48 3.14L55.48 4.18L46.06 4.18L46.06 3.14C46.06 2.86 45.95 2.59 45.75 2.4C45.55 2.2 45.29 2.09 45.01 2.09L40.82 2.09C40.55 2.09 40.28 2.2 40.08 2.4C39.89 2.59 39.78 2.86 39.78 3.14L39.78 10.46C39.78 10.74 39.89 11.01 40.08 11.2C40.28 11.4 40.55 11.51 40.82 11.51L45.01 11.51C45.29 11.51 45.55 11.4 45.75 11.2C45.95 11.01 46.06 10.74 46.06 10.46L46.06 9.42L47.1 9.42L47.1 10.17L44.34 14.79L37.68 16.45L37.68 11.83C37.68 11.2 37.51 10.59 37.19 10.05C36.87 9.51 36.41 9.07 35.86 8.78C35.3 8.48 34.68 8.34 34.06 8.37C33.43 8.4 32.83 8.6 32.31 8.95L29.77 10.64C29.63 10.74 29.51 10.86 29.43 11.02C29.35 11.17 29.31 11.34 29.31 11.51L29.31 16.45L22.65 14.79L19.89 10.17L19.89 9.42L20.93 9.42L20.93 10.46C20.93 10.74 21.04 11.01 21.24 11.2C21.44 11.4 21.7 11.51 21.98 11.51L26.17 11.51C26.44 11.51 26.71 11.4 26.91 11.2C27.1 11.01 27.21 10.74 27.21 10.46L27.21 3.14C27.21 2.86 27.1 2.59 26.91 2.4C26.71 2.2 26.44 2.09 26.17 2.09L21.98 2.09C21.7 2.09 21.44 2.2 21.24 2.4C21.04 2.59 20.93 2.86 20.93 3.14L20.93 4.18L11.51 4.18L11.51 3.14C11.51 2.86 11.4 2.59 11.2 2.4C11.01 2.2 10.74 2.09 10.46 2.09ZM9.42 9.42L7.32 9.42L7.32 4.18L9.42 4.18L9.42 9.42ZM57.57 4.18L59.67 4.18L59.67 9.42L57.57 9.42L57.57 4.18ZM43.96 9.42L41.87 9.42L41.87 4.18L43.96 4.18L43.96 9.42ZM23.03 4.18L25.12 4.18L25.12 9.42L23.03 9.42L23.03 4.18ZM17.79 62.81L17.79 62.35L21.91 59.88L25.12 62.28L25.12 62.81L17.79 62.81ZM25.62 60.04L23.11 58.16L25.28 44.07L30.18 45.71L25.62 60.04ZM33.5 37.68C33.27 37.68 33.06 37.75 32.88 37.88C32.7 38.02 32.56 38.2 32.5 38.41L30.81 43.71L25.6 41.97L27.06 32.45L39.93 32.45L41.39 41.97L36.18 43.71L34.49 38.41C34.43 38.2 34.29 38.02 34.11 37.88C33.93 37.75 33.72 37.68 33.5 37.68ZM36.81 45.71L41.71 44.07L43.88 58.16L41.37 60.04L36.81 45.71ZM49.2 62.35L49.2 62.81L41.87 62.81L41.87 62.28L45.08 59.88L49.2 62.35ZM40.27 24.23C40.12 24.33 39.99 24.46 39.91 24.61C39.82 24.77 39.78 24.94 39.78 25.12L39.78 30.35L27.21 30.35L27.21 25.12C27.21 24.94 27.17 24.77 27.08 24.61C27 24.46 26.87 24.33 26.72 24.23L23.11 21.97L24.9 17.51L29.81 18.74C30.17 19.4 30.7 19.95 31.35 20.34C32 20.73 32.74 20.93 33.5 20.93C34.25 20.93 34.99 20.73 35.64 20.34C36.29 19.95 36.82 19.4 37.18 18.74L42.09 17.51L43.88 21.97L40.27 24.23ZM31.4 16.75L31.4 14.65L35.59 14.65L35.59 16.75C35.59 17.3 35.37 17.83 34.98 18.23C34.58 18.62 34.05 18.84 33.5 18.84C32.94 18.84 32.41 18.62 32.01 18.23C31.62 17.83 31.4 17.3 31.4 16.75ZM55.48 7.32L53.94 7.32L53.68 6.28L55.48 6.28L55.48 7.32ZM46.06 7.32L46.06 6.28L47.1 6.28L47.1 7.32L46.06 7.32ZM45.26 16.71C45.53 16.65 45.77 16.47 45.91 16.24L49.05 11C49.15 10.84 49.2 10.65 49.2 10.46L49.2 6.28L51.52 6.28L52.29 9.34L48.73 18.23C48.49 18.85 48.05 19.37 47.48 19.72L45.68 20.85L44.14 16.99L45.26 16.71ZM33.47 10.69C33.67 10.56 33.91 10.48 34.16 10.47C34.41 10.45 34.65 10.51 34.87 10.63C35.09 10.74 35.27 10.92 35.39 11.13C35.52 11.34 35.59 11.58 35.59 11.83L35.59 12.56L31.4 12.56L31.4 12.07L33.47 10.69ZM20.93 7.32L19.89 7.32L19.89 6.28L20.93 6.28L20.93 7.32ZM15.47 6.28L17.79 6.28L17.79 10.46C17.79 10.65 17.84 10.84 17.94 11L21.08 16.24C21.22 16.47 21.46 16.65 21.73 16.71L22.85 16.99L21.31 20.85L19.51 19.72C18.94 19.37 18.5 18.85 18.26 18.23L14.7 9.34L15.47 6.28ZM13.31 6.28L13.05 7.32L11.51 7.32L11.51 6.28L13.31 6.28Z" fill="#ccc" fill-opacity="1.000000" fill-rule="nonzero"/>
		<path id="Vector" d="M6.28 2.09C6 2.09 5.73 2.2 5.54 2.4C5.34 2.59 5.23 2.86 5.23 3.14L5.23 10.46C5.23 10.74 5.34 11.01 5.54 11.2C5.73 11.4 6 11.51 6.28 11.51L10.46 11.51C10.74 11.51 11.01 11.4 11.2 11.2C11.4 11.01 11.51 10.74 11.51 10.46L11.51 9.42L12.56 9.42C12.56 9.55 12.58 9.68 12.63 9.81L16.31 19C16.72 20.04 17.45 20.91 18.4 21.5L25.12 25.7L25.12 31.32L21.02 57.98L16.21 60.86C16.05 60.96 15.92 61.09 15.83 61.24C15.75 61.4 15.7 61.58 15.7 61.76L15.7 63.85C15.7 64.13 15.81 64.4 16 64.59C16.2 64.79 16.47 64.9 16.75 64.9L26.17 64.9C26.44 64.9 26.71 64.79 26.91 64.59C27.1 64.4 27.21 64.13 27.21 63.85L27.21 61.92L33.5 42.18L39.78 61.92L39.78 63.85C39.78 64.13 39.89 64.4 40.08 64.59C40.28 64.79 40.55 64.9 40.82 64.9L50.25 64.9C50.52 64.9 50.79 64.79 50.99 64.59C51.18 64.4 51.29 64.13 51.29 63.85L51.29 61.76C51.29 61.58 51.25 61.4 51.16 61.24C51.07 61.09 50.94 60.96 50.78 60.86L45.97 57.98L41.87 31.32L41.87 25.7L48.59 21.5C49.54 20.91 50.27 20.04 50.68 19L54.36 9.81C54.41 9.68 54.43 9.55 54.43 9.42L55.48 9.42L55.48 10.46C55.48 10.74 55.59 11.01 55.79 11.2C55.98 11.4 56.25 11.51 56.53 11.51L60.71 11.51C60.99 11.51 61.26 11.4 61.45 11.2C61.65 11.01 61.76 10.74 61.76 10.46L61.76 3.14C61.76 2.86 61.65 2.59 61.45 2.4C61.26 2.2 60.99 2.09 60.71 2.09L56.53 2.09C56.25 2.09 55.98 2.2 55.79 2.4C55.59 2.59 55.48 2.86 55.48 3.14L55.48 4.18L46.06 4.18L46.06 3.14C46.06 2.86 45.95 2.59 45.75 2.4C45.55 2.2 45.29 2.09 45.01 2.09L40.82 2.09C40.55 2.09 40.28 2.2 40.08 2.4C39.89 2.59 39.78 2.86 39.78 3.14L39.78 10.46C39.78 10.74 39.89 11.01 40.08 11.2C40.28 11.4 40.55 11.51 40.82 11.51L45.01 11.51C45.29 11.51 45.55 11.4 45.75 11.2C45.95 11.01 46.06 10.74 46.06 10.46L46.06 9.42L47.1 9.42L47.1 10.17L44.34 14.79L37.68 16.45L37.68 11.83C37.68 11.2 37.51 10.59 37.19 10.05C36.87 9.51 36.41 9.07 35.86 8.78C35.3 8.48 34.68 8.34 34.06 8.37C33.43 8.4 32.83 8.6 32.31 8.95L29.77 10.64C29.63 10.74 29.51 10.86 29.43 11.02C29.35 11.17 29.31 11.34 29.31 11.51L29.31 16.45L22.65 14.79L19.89 10.17L19.89 9.42L20.93 9.42L20.93 10.46C20.93 10.74 21.04 11.01 21.24 11.2C21.44 11.4 21.7 11.51 21.98 11.51L26.17 11.51C26.44 11.51 26.71 11.4 26.91 11.2C27.1 11.01 27.21 10.74 27.21 10.46L27.21 3.14C27.21 2.86 27.1 2.59 26.91 2.4C26.71 2.2 26.44 2.09 26.17 2.09L21.98 2.09C21.7 2.09 21.44 2.2 21.24 2.4C21.04 2.59 20.93 2.86 20.93 3.14L20.93 4.18L11.51 4.18L11.51 3.14C11.51 2.86 11.4 2.59 11.2 2.4C11.01 2.2 10.74 2.09 10.46 2.09L6.28 2.09ZM7.32 9.42L7.32 4.18L9.42 4.18L9.42 9.42L7.32 9.42ZM59.67 4.18L59.67 9.42L57.57 9.42L57.57 4.18L59.67 4.18ZM41.87 9.42L41.87 4.18L43.96 4.18L43.96 9.42L41.87 9.42ZM25.12 4.18L25.12 9.42L23.03 9.42L23.03 4.18L25.12 4.18ZM17.79 62.35L21.91 59.88L25.12 62.28L25.12 62.81L17.79 62.81L17.79 62.35ZM23.11 58.16L25.28 44.07L30.18 45.71L25.62 60.04L23.11 58.16ZM32.88 37.88C32.7 38.02 32.56 38.2 32.5 38.41L30.81 43.71L25.6 41.97L27.06 32.45L39.93 32.45L41.39 41.97L36.18 43.71L34.49 38.41C34.43 38.2 34.29 38.02 34.11 37.88C33.93 37.75 33.72 37.68 33.5 37.68C33.27 37.68 33.06 37.75 32.88 37.88ZM41.71 44.07L43.88 58.16L41.37 60.04L36.81 45.71L41.71 44.07ZM49.2 62.81L41.87 62.81L41.87 62.28L45.08 59.88L49.2 62.35L49.2 62.81ZM39.91 24.61C39.82 24.77 39.78 24.94 39.78 25.12L39.78 30.35L27.21 30.35L27.21 25.12C27.21 24.94 27.17 24.77 27.08 24.61C27 24.46 26.87 24.33 26.72 24.23L23.11 21.97L24.9 17.51L29.81 18.74C30.17 19.4 30.7 19.95 31.35 20.34C32 20.73 32.74 20.93 33.5 20.93C34.25 20.93 34.99 20.73 35.64 20.34C36.29 19.95 36.82 19.4 37.18 18.74L42.09 17.51L43.88 21.97L40.27 24.23C40.12 24.33 39.99 24.46 39.91 24.61ZM31.4 14.65L35.59 14.65L35.59 16.75C35.59 17.3 35.37 17.83 34.98 18.23C34.58 18.62 34.05 18.84 33.5 18.84C32.94 18.84 32.41 18.62 32.01 18.23C31.62 17.83 31.4 17.3 31.4 16.75L31.4 14.65ZM53.94 7.32L53.68 6.28L55.48 6.28L55.48 7.32L53.94 7.32ZM46.06 6.28L47.1 6.28L47.1 7.32L46.06 7.32L46.06 6.28ZM45.91 16.24L49.05 11C49.15 10.84 49.2 10.65 49.2 10.46L49.2 6.28L51.52 6.28L52.29 9.34L48.73 18.23C48.49 18.85 48.05 19.37 47.48 19.72L45.68 20.85L44.14 16.99L45.26 16.71C45.53 16.65 45.77 16.47 45.91 16.24ZM34.16 10.47C34.41 10.45 34.65 10.51 34.87 10.63C35.09 10.74 35.27 10.92 35.39 11.13C35.52 11.34 35.59 11.58 35.59 11.83L35.59 12.56L31.4 12.56L31.4 12.07L33.47 10.69C33.67 10.56 33.91 10.48 34.16 10.47ZM19.89 7.32L19.89 6.28L20.93 6.28L20.93 7.32L19.89 7.32ZM17.79 6.28L17.79 10.46C17.79 10.65 17.84 10.84 17.94 11L21.08 16.24C21.22 16.47 21.46 16.65 21.73 16.71L22.85 16.99L21.31 20.85L19.51 19.72C18.94 19.37 18.5 18.85 18.26 18.23L14.7 9.34L15.47 6.28L17.79 6.28ZM13.05 7.32L11.51 7.32L11.51 6.28L13.31 6.28L13.05 7.32Z" stroke-opacity="1.000000" stroke-width="0.400000"/>
	</g>
</svg>
