<svg width="24.000000" height="24.000000" viewBox="0 0 24 24" fill="none" xmlns="http://www.w3.org/2000/svg" xmlns:xlink="http://www.w3.org/1999/xlink">
	<desc>
			Created with Pixso.
	</desc>
	<defs>
		<clipPath id="clip366_17">
			<rect id="Правая стрелка" width="24.000000" height="24.000000" fill="white" fill-opacity="0"/>
		</clipPath>
	</defs>
	<g clip-path="url(#clip366_17)">
		<path id="path" d="M12 22C17.52 22 22 17.52 22 12C22 6.47 17.52 2 12 2C6.47 2 2 6.47 2 12C2 17.52 6.47 22 12 22Z" fill="#000000" fill-opacity="0" fill-rule="nonzero"/>
		<path id="path" d="M22 12C22 6.47 17.52 2 12 2C6.47 2 2 6.47 2 12C2 17.52 6.47 22 12 22C17.52 22 22 17.52 22 12Z" stroke="#CCCCCC" stroke-opacity="1.000000" stroke-width="1.500000" stroke-linejoin="round"/>
		<path id="path" d="M7.26 12.98L7.24 13C6.82 13 6.49 12.66 6.49 12.25C6.49 11.83 6.82 11.5 7.24 11.5L7.26 11.52L7.26 12.98ZM16.22 11.52L16.24 11.5C16.66 11.5 16.99 11.83 16.99 12.25C16.99 12.66 16.66 13 16.24 13L16.22 12.98L16.22 11.52Z" fill="#000000" fill-opacity="0" fill-rule="nonzero"/>
		<path id="path" d="M7.24 12.25L16.24 12.25" stroke="#CCCCCC" stroke-opacity="1.000000" stroke-width="1.500000" stroke-linejoin="round" stroke-linecap="round"/>
		<path id="path" d="M11.24 8.28L11.21 8.28C10.91 7.98 10.91 7.51 11.21 7.21C11.51 6.92 11.97 6.92 12.27 7.21L12.27 7.24L11.24 8.28ZM12.27 17.25L12.27 17.28C11.97 17.57 11.51 17.57 11.21 17.28C10.91 16.98 10.91 16.51 11.21 16.21L11.24 16.21L12.27 17.25Z" fill="#000000" fill-opacity="0" fill-rule="nonzero"/>
		<path id="path" d="M11.74 7.75L16.24 12.25L11.74 16.75" stroke="#CCCCCC" stroke-opacity="1.000000" stroke-width="1.500000" stroke-linejoin="round" stroke-linecap="round"/>
	</g>
</svg>
