<svg width="118.000000" height="134.000000" viewBox="0 0 118 134" fill="none" xmlns="http://www.w3.org/2000/svg" xmlns:xlink="http://www.w3.org/1999/xlink">
	<desc>
			Created with Pixso.
	</desc>
	<defs/>
	<path id="Ellipse 468" d="M3 0C4.65 0 6 1.34 6 3C6 4.65 4.65 6 3 6C1.34 6 0 4.65 0 3C0 1.34 1.34 0 3 0Z" fill="#C3D600" fill-opacity="1.000000" fill-rule="evenodd"/>
	<path id="Ellipse 469" d="M19 0C20.65 0 22 1.34 22 3C22 4.65 20.65 6 19 6C17.34 6 16 4.65 16 3C16 1.34 17.34 0 19 0Z" fill="#C3D600" fill-opacity="1.000000" fill-rule="evenodd"/>
	<path id="Ellipse 470" d="M35 0C36.65 0 38 1.34 38 3C38 4.65 36.65 6 35 6C33.34 6 32 4.65 32 3C32 1.34 33.34 0 35 0Z" fill="#C3D600" fill-opacity="1.000000" fill-rule="evenodd"/>
	<path id="Ellipse 471" d="M51 0C52.65 0 54 1.34 54 3C54 4.65 52.65 6 51 6C49.34 6 48 4.65 48 3C48 1.34 49.34 0 51 0Z" fill="#C3D600" fill-opacity="1.000000" fill-rule="evenodd"/>
	<path id="Ellipse 472" d="M67 0C68.65 0 70 1.34 70 3C70 4.65 68.65 6 67 6C65.34 6 64 4.65 64 3C64 1.34 65.34 0 67 0Z" fill="#C3D600" fill-opacity="1.000000" fill-rule="evenodd"/>
	<path id="Ellipse 473" d="M83 0C84.65 0 86 1.34 86 3C86 4.65 84.65 6 83 6C81.34 6 80 4.65 80 3C80 1.34 81.34 0 83 0Z" fill="#C3D600" fill-opacity="1.000000" fill-rule="evenodd"/>
	<path id="Ellipse 474" d="M99 0C100.65 0 102 1.34 102 3C102 4.65 100.65 6 99 6C97.34 6 96 4.65 96 3C96 1.34 97.34 0 99 0Z" fill="#C3D600" fill-opacity="1.000000" fill-rule="evenodd"/>
	<path id="Ellipse 475" d="M115 0C116.65 0 118 1.34 118 3C118 4.65 116.65 6 115 6C113.34 6 112 4.65 112 3C112 1.34 113.34 0 115 0Z" fill="#C3D600" fill-opacity="1.000000" fill-rule="evenodd"/>
	<path id="Ellipse 468" d="M3 16C4.65 16 6 17.34 6 19C6 20.65 4.65 22 3 22C1.34 22 0 20.65 0 19C0 17.34 1.34 16 3 16Z" fill="#C3D600" fill-opacity="1.000000" fill-rule="evenodd"/>
	<path id="Ellipse 469" d="M19 16C20.65 16 22 17.34 22 19C22 20.65 20.65 22 19 22C17.34 22 16 20.65 16 19C16 17.34 17.34 16 19 16Z" fill="#C3D600" fill-opacity="1.000000" fill-rule="evenodd"/>
	<path id="Ellipse 470" d="M35 16C36.65 16 38 17.34 38 19C38 20.65 36.65 22 35 22C33.34 22 32 20.65 32 19C32 17.34 33.34 16 35 16Z" fill="#C3D600" fill-opacity="1.000000" fill-rule="evenodd"/>
	<path id="Ellipse 471" d="M51 16C52.65 16 54 17.34 54 19C54 20.65 52.65 22 51 22C49.34 22 48 20.65 48 19C48 17.34 49.34 16 51 16Z" fill="#C3D600" fill-opacity="1.000000" fill-rule="evenodd"/>
	<path id="Ellipse 472" d="M67 16C68.65 16 70 17.34 70 19C70 20.65 68.65 22 67 22C65.34 22 64 20.65 64 19C64 17.34 65.34 16 67 16Z" fill="#C3D600" fill-opacity="1.000000" fill-rule="evenodd"/>
	<path id="Ellipse 473" d="M83 16C84.65 16 86 17.34 86 19C86 20.65 84.65 22 83 22C81.34 22 80 20.65 80 19C80 17.34 81.34 16 83 16Z" fill="#C3D600" fill-opacity="1.000000" fill-rule="evenodd"/>
	<path id="Ellipse 474" d="M99 16C100.65 16 102 17.34 102 19C102 20.65 100.65 22 99 22C97.34 22 96 20.65 96 19C96 17.34 97.34 16 99 16Z" fill="#C3D600" fill-opacity="1.000000" fill-rule="evenodd"/>
	<path id="Ellipse 475" d="M115 16C116.65 16 118 17.34 118 19C118 20.65 116.65 22 115 22C113.34 22 112 20.65 112 19C112 17.34 113.34 16 115 16Z" fill="#C3D600" fill-opacity="1.000000" fill-rule="evenodd"/>
	<path id="Ellipse 468" d="M3 32C4.65 32 6 33.34 6 35C6 36.65 4.65 38 3 38C1.34 38 0 36.65 0 35C0 33.34 1.34 32 3 32Z" fill="#C3D600" fill-opacity="1.000000" fill-rule="evenodd"/>
	<path id="Ellipse 469" d="M19 32C20.65 32 22 33.34 22 35C22 36.65 20.65 38 19 38C17.34 38 16 36.65 16 35C16 33.34 17.34 32 19 32Z" fill="#C3D600" fill-opacity="1.000000" fill-rule="evenodd"/>
	<path id="Ellipse 470" d="M35 32C36.65 32 38 33.34 38 35C38 36.65 36.65 38 35 38C33.34 38 32 36.65 32 35C32 33.34 33.34 32 35 32Z" fill="#C3D600" fill-opacity="1.000000" fill-rule="evenodd"/>
	<path id="Ellipse 471" d="M51 32C52.65 32 54 33.34 54 35C54 36.65 52.65 38 51 38C49.34 38 48 36.65 48 35C48 33.34 49.34 32 51 32Z" fill="#C3D600" fill-opacity="1.000000" fill-rule="evenodd"/>
	<path id="Ellipse 472" d="M67 32C68.65 32 70 33.34 70 35C70 36.65 68.65 38 67 38C65.34 38 64 36.65 64 35C64 33.34 65.34 32 67 32Z" fill="#C3D600" fill-opacity="1.000000" fill-rule="evenodd"/>
	<path id="Ellipse 473" d="M83 32C84.65 32 86 33.34 86 35C86 36.65 84.65 38 83 38C81.34 38 80 36.65 80 35C80 33.34 81.34 32 83 32Z" fill="#C3D600" fill-opacity="1.000000" fill-rule="evenodd"/>
	<path id="Ellipse 474" d="M99 32C100.65 32 102 33.34 102 35C102 36.65 100.65 38 99 38C97.34 38 96 36.65 96 35C96 33.34 97.34 32 99 32Z" fill="#C3D600" fill-opacity="1.000000" fill-rule="evenodd"/>
	<path id="Ellipse 475" d="M115 32C116.65 32 118 33.34 118 35C118 36.65 116.65 38 115 38C113.34 38 112 36.65 112 35C112 33.34 113.34 32 115 32Z" fill="#C3D600" fill-opacity="1.000000" fill-rule="evenodd"/>
	<path id="Ellipse 468" d="M3 48C4.65 48 6 49.34 6 51C6 52.65 4.65 54 3 54C1.34 54 0 52.65 0 51C0 49.34 1.34 48 3 48Z" fill="#C3D600" fill-opacity="1.000000" fill-rule="evenodd"/>
	<path id="Ellipse 469" d="M19 48C20.65 48 22 49.34 22 51C22 52.65 20.65 54 19 54C17.34 54 16 52.65 16 51C16 49.34 17.34 48 19 48Z" fill="#C3D600" fill-opacity="1.000000" fill-rule="evenodd"/>
	<path id="Ellipse 470" d="M35 48C36.65 48 38 49.34 38 51C38 52.65 36.65 54 35 54C33.34 54 32 52.65 32 51C32 49.34 33.34 48 35 48Z" fill="#C3D600" fill-opacity="1.000000" fill-rule="evenodd"/>
	<path id="Ellipse 471" d="M51 48C52.65 48 54 49.34 54 51C54 52.65 52.65 54 51 54C49.34 54 48 52.65 48 51C48 49.34 49.34 48 51 48Z" fill="#C3D600" fill-opacity="1.000000" fill-rule="evenodd"/>
	<path id="Ellipse 472" d="M67 48C68.65 48 70 49.34 70 51C70 52.65 68.65 54 67 54C65.34 54 64 52.65 64 51C64 49.34 65.34 48 67 48Z" fill="#C3D600" fill-opacity="1.000000" fill-rule="evenodd"/>
	<path id="Ellipse 473" d="M83 48C84.65 48 86 49.34 86 51C86 52.65 84.65 54 83 54C81.34 54 80 52.65 80 51C80 49.34 81.34 48 83 48Z" fill="#C3D600" fill-opacity="1.000000" fill-rule="evenodd"/>
	<path id="Ellipse 474" d="M99 48C100.65 48 102 49.34 102 51C102 52.65 100.65 54 99 54C97.34 54 96 52.65 96 51C96 49.34 97.34 48 99 48Z" fill="#C3D600" fill-opacity="1.000000" fill-rule="evenodd"/>
	<path id="Ellipse 475" d="M115 48C116.65 48 118 49.34 118 51C118 52.65 116.65 54 115 54C113.34 54 112 52.65 112 51C112 49.34 113.34 48 115 48Z" fill="#C3D600" fill-opacity="1.000000" fill-rule="evenodd"/>
	<path id="Ellipse 468" d="M3 64C4.65 64 6 65.34 6 67C6 68.65 4.65 70 3 70C1.34 70 0 68.65 0 67C0 65.34 1.34 64 3 64Z" fill="#C3D600" fill-opacity="1.000000" fill-rule="evenodd"/>
	<path id="Ellipse 469" d="M19 64C20.65 64 22 65.34 22 67C22 68.65 20.65 70 19 70C17.34 70 16 68.65 16 67C16 65.34 17.34 64 19 64Z" fill="#C3D600" fill-opacity="1.000000" fill-rule="evenodd"/>
	<path id="Ellipse 470" d="M35 64C36.65 64 38 65.34 38 67C38 68.65 36.65 70 35 70C33.34 70 32 68.65 32 67C32 65.34 33.34 64 35 64Z" fill="#C3D600" fill-opacity="1.000000" fill-rule="evenodd"/>
	<path id="Ellipse 471" d="M51 64C52.65 64 54 65.34 54 67C54 68.65 52.65 70 51 70C49.34 70 48 68.65 48 67C48 65.34 49.34 64 51 64Z" fill="#C3D600" fill-opacity="1.000000" fill-rule="evenodd"/>
	<path id="Ellipse 472" d="M67 64C68.65 64 70 65.34 70 67C70 68.65 68.65 70 67 70C65.34 70 64 68.65 64 67C64 65.34 65.34 64 67 64Z" fill="#C3D600" fill-opacity="1.000000" fill-rule="evenodd"/>
	<path id="Ellipse 473" d="M83 64C84.65 64 86 65.34 86 67C86 68.65 84.65 70 83 70C81.34 70 80 68.65 80 67C80 65.34 81.34 64 83 64Z" fill="#C3D600" fill-opacity="1.000000" fill-rule="evenodd"/>
	<path id="Ellipse 474" d="M99 64C100.65 64 102 65.34 102 67C102 68.65 100.65 70 99 70C97.34 70 96 68.65 96 67C96 65.34 97.34 64 99 64Z" fill="#C3D600" fill-opacity="1.000000" fill-rule="evenodd"/>
	<path id="Ellipse 475" d="M115 64C116.65 64 118 65.34 118 67C118 68.65 116.65 70 115 70C113.34 70 112 68.65 112 67C112 65.34 113.34 64 115 64Z" fill="#C3D600" fill-opacity="1.000000" fill-rule="evenodd"/>
	<path id="Ellipse 468" d="M3 80C4.65 80 6 81.34 6 83C6 84.65 4.65 86 3 86C1.34 86 0 84.65 0 83C0 81.34 1.34 80 3 80Z" fill="#C3D600" fill-opacity="1.000000" fill-rule="evenodd"/>
	<path id="Ellipse 469" d="M19 80C20.65 80 22 81.34 22 83C22 84.65 20.65 86 19 86C17.34 86 16 84.65 16 83C16 81.34 17.34 80 19 80Z" fill="#C3D600" fill-opacity="1.000000" fill-rule="evenodd"/>
	<path id="Ellipse 470" d="M35 80C36.65 80 38 81.34 38 83C38 84.65 36.65 86 35 86C33.34 86 32 84.65 32 83C32 81.34 33.34 80 35 80Z" fill="#C3D600" fill-opacity="1.000000" fill-rule="evenodd"/>
	<path id="Ellipse 471" d="M51 80C52.65 80 54 81.34 54 83C54 84.65 52.65 86 51 86C49.34 86 48 84.65 48 83C48 81.34 49.34 80 51 80Z" fill="#C3D600" fill-opacity="1.000000" fill-rule="evenodd"/>
	<path id="Ellipse 472" d="M67 80C68.65 80 70 81.34 70 83C70 84.65 68.65 86 67 86C65.34 86 64 84.65 64 83C64 81.34 65.34 80 67 80Z" fill="#C3D600" fill-opacity="1.000000" fill-rule="evenodd"/>
	<path id="Ellipse 473" d="M83 80C84.65 80 86 81.34 86 83C86 84.65 84.65 86 83 86C81.34 86 80 84.65 80 83C80 81.34 81.34 80 83 80Z" fill="#C3D600" fill-opacity="1.000000" fill-rule="evenodd"/>
	<path id="Ellipse 474" d="M99 80C100.65 80 102 81.34 102 83C102 84.65 100.65 86 99 86C97.34 86 96 84.65 96 83C96 81.34 97.34 80 99 80Z" fill="#C3D600" fill-opacity="1.000000" fill-rule="evenodd"/>
	<path id="Ellipse 475" d="M115 80C116.65 80 118 81.34 118 83C118 84.65 116.65 86 115 86C113.34 86 112 84.65 112 83C112 81.34 113.34 80 115 80Z" fill="#C3D600" fill-opacity="1.000000" fill-rule="evenodd"/>
	<path id="Ellipse 468" d="M3 96C4.65 96 6 97.34 6 99C6 100.65 4.65 102 3 102C1.34 102 0 100.65 0 99C0 97.34 1.34 96 3 96Z" fill="#C3D600" fill-opacity="1.000000" fill-rule="evenodd"/>
	<path id="Ellipse 469" d="M19 96C20.65 96 22 97.34 22 99C22 100.65 20.65 102 19 102C17.34 102 16 100.65 16 99C16 97.34 17.34 96 19 96Z" fill="#C3D600" fill-opacity="1.000000" fill-rule="evenodd"/>
	<path id="Ellipse 470" d="M35 96C36.65 96 38 97.34 38 99C38 100.65 36.65 102 35 102C33.34 102 32 100.65 32 99C32 97.34 33.34 96 35 96Z" fill="#C3D600" fill-opacity="1.000000" fill-rule="evenodd"/>
	<path id="Ellipse 471" d="M51 96C52.65 96 54 97.34 54 99C54 100.65 52.65 102 51 102C49.34 102 48 100.65 48 99C48 97.34 49.34 96 51 96Z" fill="#C3D600" fill-opacity="1.000000" fill-rule="evenodd"/>
	<path id="Ellipse 472" d="M67 96C68.65 96 70 97.34 70 99C70 100.65 68.65 102 67 102C65.34 102 64 100.65 64 99C64 97.34 65.34 96 67 96Z" fill="#C3D600" fill-opacity="1.000000" fill-rule="evenodd"/>
	<path id="Ellipse 473" d="M83 96C84.65 96 86 97.34 86 99C86 100.65 84.65 102 83 102C81.34 102 80 100.65 80 99C80 97.34 81.34 96 83 96Z" fill="#C3D600" fill-opacity="1.000000" fill-rule="evenodd"/>
	<path id="Ellipse 474" d="M99 96C100.65 96 102 97.34 102 99C102 100.65 100.65 102 99 102C97.34 102 96 100.65 96 99C96 97.34 97.34 96 99 96Z" fill="#C3D600" fill-opacity="1.000000" fill-rule="evenodd"/>
	<path id="Ellipse 475" d="M115 96C116.65 96 118 97.34 118 99C118 100.65 116.65 102 115 102C113.34 102 112 100.65 112 99C112 97.34 113.34 96 115 96Z" fill="#C3D600" fill-opacity="1.000000" fill-rule="evenodd"/>
	<path id="Ellipse 468" d="M3 112C4.65 112 6 113.34 6 115C6 116.65 4.65 118 3 118C1.34 118 0 116.65 0 115C0 113.34 1.34 112 3 112Z" fill="#C3D600" fill-opacity="1.000000" fill-rule="evenodd"/>
	<path id="Ellipse 469" d="M19 112C20.65 112 22 113.34 22 115C22 116.65 20.65 118 19 118C17.34 118 16 116.65 16 115C16 113.34 17.34 112 19 112Z" fill="#C3D600" fill-opacity="1.000000" fill-rule="evenodd"/>
	<path id="Ellipse 470" d="M35 112C36.65 112 38 113.34 38 115C38 116.65 36.65 118 35 118C33.34 118 32 116.65 32 115C32 113.34 33.34 112 35 112Z" fill="#C3D600" fill-opacity="1.000000" fill-rule="evenodd"/>
	<path id="Ellipse 471" d="M51 112C52.65 112 54 113.34 54 115C54 116.65 52.65 118 51 118C49.34 118 48 116.65 48 115C48 113.34 49.34 112 51 112Z" fill="#C3D600" fill-opacity="1.000000" fill-rule="evenodd"/>
	<path id="Ellipse 472" d="M67 112C68.65 112 70 113.34 70 115C70 116.65 68.65 118 67 118C65.34 118 64 116.65 64 115C64 113.34 65.34 112 67 112Z" fill="#C3D600" fill-opacity="1.000000" fill-rule="evenodd"/>
	<path id="Ellipse 473" d="M83 112C84.65 112 86 113.34 86 115C86 116.65 84.65 118 83 118C81.34 118 80 116.65 80 115C80 113.34 81.34 112 83 112Z" fill="#C3D600" fill-opacity="1.000000" fill-rule="evenodd"/>
	<path id="Ellipse 474" d="M99 112C100.65 112 102 113.34 102 115C102 116.65 100.65 118 99 118C97.34 118 96 116.65 96 115C96 113.34 97.34 112 99 112Z" fill="#C3D600" fill-opacity="1.000000" fill-rule="evenodd"/>
	<path id="Ellipse 475" d="M115 112C116.65 112 118 113.34 118 115C118 116.65 116.65 118 115 118C113.34 118 112 116.65 112 115C112 113.34 113.34 112 115 112Z" fill="#C3D600" fill-opacity="1.000000" fill-rule="evenodd"/>
	<path id="Ellipse 468" d="M3 128C4.65 128 6 129.34 6 131C6 132.65 4.65 134 3 134C1.34 134 0 132.65 0 131C0 129.34 1.34 128 3 128Z" fill="#C3D600" fill-opacity="1.000000" fill-rule="evenodd"/>
	<path id="Ellipse 469" d="M19 128C20.65 128 22 129.34 22 131C22 132.65 20.65 134 19 134C17.34 134 16 132.65 16 131C16 129.34 17.34 128 19 128Z" fill="#C3D600" fill-opacity="1.000000" fill-rule="evenodd"/>
	<path id="Ellipse 470" d="M35 128C36.65 128 38 129.34 38 131C38 132.65 36.65 134 35 134C33.34 134 32 132.65 32 131C32 129.34 33.34 128 35 128Z" fill="#C3D600" fill-opacity="1.000000" fill-rule="evenodd"/>
	<path id="Ellipse 471" d="M51 128C52.65 128 54 129.34 54 131C54 132.65 52.65 134 51 134C49.34 134 48 132.65 48 131C48 129.34 49.34 128 51 128Z" fill="#C3D600" fill-opacity="1.000000" fill-rule="evenodd"/>
	<path id="Ellipse 472" d="M67 128C68.65 128 70 129.34 70 131C70 132.65 68.65 134 67 134C65.34 134 64 132.65 64 131C64 129.34 65.34 128 67 128Z" fill="#C3D600" fill-opacity="1.000000" fill-rule="evenodd"/>
	<path id="Ellipse 473" d="M83 128C84.65 128 86 129.34 86 131C86 132.65 84.65 134 83 134C81.34 134 80 132.65 80 131C80 129.34 81.34 128 83 128Z" fill="#C3D600" fill-opacity="1.000000" fill-rule="evenodd"/>
	<path id="Ellipse 474" d="M99 128C100.65 128 102 129.34 102 131C102 132.65 100.65 134 99 134C97.34 134 96 132.65 96 131C96 129.34 97.34 128 99 128Z" fill="#C3D600" fill-opacity="1.000000" fill-rule="evenodd"/>
	<path id="Ellipse 475" d="M115 128C116.65 128 118 129.34 118 131C118 132.65 116.65 134 115 134C113.34 134 112 132.65 112 131C112 129.34 113.34 128 115 128Z" fill="#C3D600" fill-opacity="1.000000" fill-rule="evenodd"/>
</svg>
