<svg width="63.000000" height="63.000000" viewBox="0 0 63 63" fill="none" xmlns="http://www.w3.org/2000/svg" xmlns:xlink="http://www.w3.org/1999/xlink">
	<desc>
			Created with Pixso.
	</desc>
	<defs>
		<clipPath id="clip140_150">
			<rect id="wellness 1" width="63.000000" height="63.000000" fill="white" fill-opacity="0"/>
		</clipPath>
	</defs>
	<rect id="wellness 1" width="63.000000" height="63.000000" fill="#FFFFFF" fill-opacity="0"/>
	<g clip-path="url(#clip140_150)">
		<path id="Vector" d="M62.94 50.69L61.81 46.35C61.56 45.4 60.77 44.71 59.8 44.59L55.75 44.09C55.64 44.08 55.55 44.03 55.48 43.95L49.32 37.27C49.23 37.17 49.17 37.05 49.15 36.92L47.88 28.69C47.81 28.19 47.34 27.85 46.84 27.92C46.34 28 46 28.47 46.07 28.97L47.34 37.2C47.42 37.69 47.64 38.15 47.98 38.51L54.14 45.2C54.5 45.59 54.99 45.84 55.52 45.91L59.57 46.41C59.8 46.43 59.98 46.59 60.04 46.81L61.02 50.56L55.15 48.11C54.73 47.93 54.32 47.71 53.94 47.45L45.17 41.47C44.92 41.3 44.74 41.06 44.66 40.77L41.42 29.75C41.72 28.91 41.87 28.03 41.87 27.13C41.87 27.13 41.87 20.48 41.87 20.42C42.21 20.57 42.53 20.76 42.83 20.97L43.34 21.34C44.45 22.15 45.21 23.4 45.42 24.76C45.59 25.94 47.43 25.65 47.23 24.48C46.95 22.64 45.92 20.95 44.41 19.86L43.91 19.49C43.01 18.84 41.97 18.41 40.87 18.24C40.28 17.67 39.48 17.32 38.6 17.32L36.11 17.32L36.11 15.39C36.11 15.38 36.11 15.38 36.11 15.38C36.54 14.9 36.9 14.36 37.17 13.77C38 13.51 38.77 12.84 39.26 11.9C39.64 11.17 39.8 10.36 39.71 9.63C39.61 8.79 39.17 8.11 38.52 7.76C38.28 7.64 38.02 7.56 37.75 7.53L37.75 7.52L37.75 4.91C37.75 2.5 35.8 0.54 33.39 0.54L29.65 0.54C27.24 0.54 25.28 2.5 25.28 4.91L25.28 7.52L25.28 7.53C25 7.55 24.73 7.63 24.48 7.76C23.82 8.11 23.38 8.79 23.28 9.63C23.19 10.36 23.35 11.17 23.73 11.9C24.23 12.85 25.02 13.54 25.87 13.79C26.13 14.34 26.47 14.86 26.88 15.32L26.88 17.32L24.39 17.32C23.51 17.32 22.71 17.67 22.12 18.24C21.03 18.41 19.98 18.84 19.08 19.49L18.58 19.86C17.07 20.95 16.04 22.64 15.76 24.48L13.84 36.92C13.82 37.05 13.76 37.17 13.67 37.27L7.51 43.95C7.44 44.03 7.34 44.08 7.24 44.09L3.19 44.59C2.22 44.71 1.43 45.4 1.18 46.35L0.05 50.69C-0.09 51.2 0.04 51.72 0.39 52.1C0.16 52.71 0.03 53.35 0.03 54.01C0.03 57 2.46 59.43 5.45 59.43L11.73 59.43C11.5 59.93 11.44 60.5 11.57 61.05C11.8 62.14 13.1 62.77 14.1 62.27L17.61 60.64C18.39 60.27 19.23 60.05 20.09 59.98L26.61 59.43L57.54 59.43C60.53 59.43 62.96 57 62.96 54.01C62.96 53.35 62.83 52.71 62.6 52.1C62.95 51.72 63.08 51.2 62.94 50.69ZM44.13 42.98L47.1 45.01C45.38 44.77 43.64 44.65 41.9 44.65C41.89 44.65 41.88 44.65 41.86 44.65L41.52 44.09C40.29 42.05 39.63 39.7 39.63 37.31L39.63 35.33C39.63 34.26 39.84 33.21 40.24 32.22L42.9 41.29C43.1 41.98 43.54 42.58 44.13 42.98ZM28.71 17.09C29.52 17.77 30.52 18.12 31.52 18.12C32.5 18.12 33.48 17.79 34.28 17.13L34.28 18.71C34.28 19.44 33.68 20.04 32.95 20.04L30.04 20.04C29.31 20.04 28.71 19.44 28.71 18.71L28.71 17.09ZM29.65 2.38L33.39 2.38C34.79 2.38 35.92 3.51 35.92 4.91L35.92 4.95L27.12 4.95L27.12 4.91C27.12 3.51 28.25 2.38 29.65 2.38ZM25.35 11.05C25.14 10.65 25.05 10.22 25.09 9.85C25.12 9.37 25.48 9.26 25.8 9.45C26.08 9.59 26.42 9.57 26.69 9.4C26.95 9.23 27.12 8.94 27.12 8.62L27.12 6.78L35.92 6.78L35.92 8.6C35.92 8.91 36.08 9.2 36.34 9.37C36.6 9.54 36.93 9.56 37.22 9.44C37.53 9.26 37.87 9.39 37.9 9.85C37.94 10.22 37.85 10.65 37.64 11.05C37.31 11.69 36.79 12.04 36.46 12.06C36.09 12.08 35.78 12.32 35.65 12.66C35.41 13.31 35.03 13.91 34.53 14.39L33.29 15.57C32.3 16.52 30.74 16.52 29.75 15.57L28.51 14.39C28.01 13.91 27.62 13.31 27.39 12.66C27.26 12.31 26.93 12.07 26.55 12.06C26.21 12.05 25.69 11.7 25.35 11.05ZM24.39 19.15L26.91 19.15C27.13 20.69 28.45 21.87 30.04 21.87L32.95 21.87C34.54 21.87 35.86 20.69 36.08 19.15L38.6 19.15C39.39 19.15 40.04 19.8 40.04 20.59L40.04 27.13C40.04 28.21 39.75 29.27 39.2 30.2C38.28 31.75 37.8 33.53 37.8 35.33L37.8 37.31C37.8 40.03 38.54 42.71 39.96 45.04L40.3 45.6L39.09 45.77C34.05 46.5 28.94 46.5 23.9 45.77L22.69 45.6L23.03 45.04C24.45 42.71 25.19 40.03 25.19 37.31L25.19 35.33C25.19 33.53 24.71 31.75 23.79 30.2C23.24 29.27 22.95 28.21 22.95 27.13L22.95 20.59C22.95 19.8 23.6 19.15 24.39 19.15ZM21.47 44.09L21.13 44.65C21.11 44.65 21.1 44.65 21.09 44.65C19.35 44.65 17.61 44.77 15.88 45.01L18.86 42.98C19.45 42.58 19.89 41.98 20.09 41.29L22.75 32.22C23.15 33.21 23.36 34.26 23.36 35.33L23.36 37.31C23.36 39.7 22.71 42.05 21.47 44.09ZM2.95 46.81C3.01 46.59 3.19 46.43 3.42 46.41L7.47 45.91C8 45.84 8.49 45.59 8.85 45.2L15.01 38.51C15.35 38.15 15.57 37.69 15.65 37.2L17.57 24.76C17.78 23.4 18.54 22.15 19.65 21.34L20.16 20.97C20.46 20.76 20.78 20.57 21.12 20.42C21.12 20.48 21.12 27.13 21.12 27.13C21.12 28.03 21.27 28.91 21.57 29.75L18.33 40.77C18.25 41.06 18.07 41.3 17.82 41.47L9.05 47.45C8.67 47.71 8.26 47.93 7.84 48.11L1.97 50.56L2.95 46.81ZM1.87 54.01C1.87 53.46 1.99 52.92 2.23 52.44L7.84 50.09L10.93 49.93C13.47 49.79 16.01 50.01 18.49 50.57C18.64 50.6 19.48 50.81 19.62 50.8C20.04 50.8 20.42 50.51 20.51 50.09C20.62 49.59 20.32 49.1 19.82 48.99L18.89 48.78C16.43 48.22 13.91 47.99 11.39 48.07L12.04 47.63C14.89 46.9 17.83 46.51 20.78 46.49C20.78 46.49 20.79 46.5 20.79 46.5C21 46.96 21.43 47.27 21.92 47.34L23.64 47.59C26.24 47.96 28.87 48.15 31.49 48.15C34.12 48.15 36.75 47.96 39.35 47.59L41.06 47.34C41.56 47.27 41.99 46.96 42.2 46.5C42.2 46.5 42.21 46.49 42.21 46.49C45.16 46.51 48.1 46.9 50.95 47.63L51.6 48.07C49.08 47.99 46.56 48.22 44.1 48.78L31.5 51.64L27.25 50.68C25.9 49.92 24.19 50.18 23.13 51.32L21.51 53.07C21.35 53.25 21.13 53.39 20.9 53.47L16.99 54.88C16.18 55.16 15.46 55.61 14.85 56.2L13.39 57.6L5.45 57.6C3.47 57.6 1.87 55.99 1.87 54.01ZM19.93 58.15C18.86 58.24 17.82 58.52 16.84 58.98L13.35 60.6C13.3 60.38 13.38 60.15 13.54 59.99L16.12 57.52C16.55 57.11 17.05 56.8 17.61 56.6L21.52 55.2C22.03 55.02 22.49 54.71 22.86 54.32L24.48 52.57C25 52 25.87 51.93 26.5 52.36L27.95 53.26C28.38 53.53 28.84 53.75 29.33 53.9L29.39 53.92L29.39 57.36L19.93 58.15ZM57.54 57.6L31.22 57.6L31.22 53.58L44.5 50.57C46.98 50.01 49.52 49.79 52.06 49.93C52.06 49.93 55.1 50.09 55.13 50.09L60.76 52.44C61 52.93 61.12 53.46 61.12 54.01C61.12 55.99 59.52 57.6 57.54 57.6Z" fill="#E9494F" fill-opacity="1.000000" fill-rule="nonzero"/>
	</g>
</svg>
