<svg width="63.000000" height="63.000000" viewBox="0 0 63 63" fill="none" xmlns="http://www.w3.org/2000/svg" xmlns:xlink="http://www.w3.org/1999/xlink">
	<desc>
			Created with Pixso.
	</desc>
	<defs>
		<clipPath id="clip140_137">
			<rect id="nutrition 1" width="63.000000" height="63.000000" fill="white" fill-opacity="0"/>
		</clipPath>
	</defs>
	<rect id="nutrition 1" width="63.000000" height="63.000000" fill="#FFFFFF" fill-opacity="0"/>
	<g clip-path="url(#clip140_137)">
		<path id="Vector" d="M27.15 44.86C27.51 45.33 27.98 45.72 28.52 45.99C29.05 46.26 29.65 46.4 30.25 46.4C30.67 46.4 31.1 46.33 31.5 46.19C31.9 46.33 32.32 46.4 32.75 46.4C33.35 46.4 33.94 46.26 34.48 45.99C35.02 45.72 35.49 45.33 35.85 44.86L39.65 39.82C41.03 37.99 41.78 35.76 41.78 33.46C41.78 32.36 41.5 31.27 40.95 30.3C40.41 29.34 39.63 28.53 38.68 27.95C37.73 27.38 36.65 27.06 35.55 27.03C34.44 26.99 33.34 27.24 32.36 27.75L32.36 26.65L33.13 26.65C34.27 26.65 35.36 26.2 36.16 25.4C36.96 24.6 37.41 23.51 37.41 22.37C37.41 22.14 37.32 21.92 37.16 21.76C37 21.6 36.78 21.51 36.55 21.51L34.92 21.51C34.24 21.51 33.57 21.67 32.97 21.98C32.36 22.29 31.84 22.74 31.45 23.29C31.03 22.74 30.49 22.29 29.87 21.98C29.26 21.67 28.57 21.51 27.88 21.51C27.65 21.51 27.43 21.6 27.27 21.76C27.11 21.93 27.02 22.14 27.02 22.37C27.02 22.6 27.11 22.82 27.27 22.98C27.43 23.14 27.65 23.23 27.88 23.23C28.61 23.24 29.31 23.53 29.83 24.04C30.35 24.56 30.64 25.26 30.64 25.99L30.64 27.75C29.65 27.24 28.56 26.99 27.45 27.03C26.34 27.06 25.26 27.38 24.32 27.95C23.37 28.53 22.58 29.34 22.04 30.3C21.5 31.27 21.21 32.36 21.21 33.46C21.22 35.76 21.96 37.99 23.34 39.82L27.15 44.86ZM34.92 23.23L35.54 23.23C35.36 23.73 35.03 24.16 34.6 24.46C34.17 24.77 33.66 24.93 33.13 24.93L32.51 24.93C32.69 24.43 33.01 24 33.44 23.7C33.87 23.4 34.39 23.24 34.92 23.23L34.92 23.23ZM27.65 28.74C28.86 28.74 30.03 29.21 30.9 30.04C31.06 30.19 31.28 30.28 31.5 30.28C31.72 30.28 31.93 30.19 32.09 30.04C32.76 29.41 33.6 28.98 34.51 28.82C35.42 28.65 36.35 28.76 37.2 29.12C38.05 29.49 38.78 30.09 39.28 30.86C39.79 31.64 40.06 32.54 40.06 33.46C40.06 35.38 39.43 37.25 38.28 38.78L34.47 43.82C34.17 44.2 33.75 44.48 33.28 44.6C32.8 44.72 32.3 44.68 31.85 44.48C31.74 44.43 31.62 44.41 31.5 44.41C31.37 44.41 31.25 44.43 31.14 44.48C30.69 44.68 30.19 44.72 29.72 44.6C29.24 44.48 28.82 44.2 28.52 43.82L24.72 38.78C23.56 37.25 22.94 35.38 22.93 33.46C22.93 32.21 23.43 31.01 24.32 30.13C25.2 29.24 26.4 28.75 27.65 28.74Z" fill="#E9494F" fill-opacity="1.000000" fill-rule="nonzero"/>
		<path id="Vector" d="M50.53 4.92L38.57 4.92L37.24 0.6C37.19 0.43 37.08 0.27 36.93 0.16C36.78 0.05 36.61 0 36.42 0L26.57 0C26.39 -0.01 26.21 0.05 26.06 0.16C25.91 0.27 25.8 0.43 25.75 0.6L24.42 4.92L12.46 4.92C11.58 4.92 10.74 5.27 10.12 5.89C9.49 6.51 9.14 7.36 9.14 8.24L9.14 59.67C9.14 60.55 9.49 61.4 10.12 62.02C10.74 62.64 11.58 62.99 12.46 63L50.53 63C51.41 62.99 52.25 62.64 52.87 62.02C53.5 61.4 53.85 60.55 53.85 59.67L53.85 8.24C53.85 7.36 53.5 6.51 52.87 5.89C52.25 5.27 51.41 4.92 50.53 4.92ZM47.2 11.56L47.2 56.35L15.79 56.35L15.79 11.56L47.2 11.56ZM25.06 6.64C25.24 6.64 25.42 6.58 25.57 6.48C25.72 6.37 25.83 6.21 25.88 6.03L27.21 1.72L35.78 1.72L37.11 6.03C37.16 6.21 37.27 6.37 37.42 6.47C37.57 6.58 37.75 6.64 37.93 6.64L41.99 6.64L41.99 9.84L21 9.84L21 6.64L25.06 6.64ZM52.13 59.67C52.13 60.1 51.96 60.5 51.66 60.8C51.36 61.1 50.95 61.27 50.53 61.27L12.46 61.27C12.04 61.27 11.63 61.1 11.33 60.8C11.03 60.5 10.86 60.1 10.86 59.67L10.86 8.24C10.86 7.82 11.03 7.41 11.33 7.11C11.63 6.81 12.04 6.64 12.46 6.64L19.27 6.64L19.27 9.84L14.93 9.84C14.7 9.84 14.48 9.93 14.32 10.09C14.15 10.25 14.06 10.47 14.06 10.7L14.06 57.21C14.06 57.44 14.15 57.66 14.32 57.82C14.48 57.98 14.7 58.07 14.93 58.07L48.07 58.07C48.29 58.07 48.51 57.98 48.67 57.82C48.84 57.66 48.93 57.44 48.93 57.21L48.93 10.7C48.93 10.47 48.84 10.25 48.67 10.09C48.51 9.93 48.29 9.84 48.07 9.84L43.72 9.84L43.72 6.64L50.53 6.64C50.95 6.64 51.36 6.81 51.66 7.11C51.96 7.41 52.13 7.82 52.13 8.24L52.13 59.67Z" fill="#E9494F" fill-opacity="1.000000" fill-rule="nonzero"/>
		<path id="Vector" d="M30.17 6.64L32.82 6.64C33.05 6.64 33.27 6.55 33.43 6.39C33.59 6.23 33.68 6.01 33.68 5.78C33.68 5.55 33.59 5.33 33.43 5.17C33.27 5.01 33.05 4.92 32.82 4.92L30.17 4.92C29.94 4.92 29.72 5.01 29.56 5.17C29.4 5.33 29.31 5.55 29.31 5.78C29.31 6.01 29.4 6.23 29.56 6.39C29.72 6.55 29.94 6.64 30.17 6.64Z" fill="#E9494F" fill-opacity="1.000000" fill-rule="nonzero"/>
		<path id="Vector" d="M32.82 6.64C33.05 6.64 33.27 6.55 33.43 6.39C33.59 6.23 33.68 6.01 33.68 5.78C33.68 5.55 33.59 5.33 33.43 5.17C33.27 5.01 33.05 4.92 32.82 4.92L30.17 4.92C29.94 4.92 29.72 5.01 29.56 5.17C29.4 5.33 29.31 5.55 29.31 5.78C29.31 6.01 29.4 6.23 29.56 6.39C29.72 6.55 29.94 6.64 30.17 6.64L32.82 6.64Z" stroke="#E9494F" stroke-opacity="1.000000" stroke-width="1.000000"/>
	</g>
</svg>
